<svg width="85" height="85" viewBox="0 0 85 85" fill="none" xmlns="http://www.w3.org/2000/svg">
<circle cx="42.5" cy="42.5" r="40.5" stroke="white" stroke-width="4"/>
<g clip-path="url(#clip0_305_34)">
<path d="M53.3219 34.5576L48.4936 24.991V22.7872H48.7596C49.2002 22.7872 49.5575 22.4301 49.5575 21.9894V18.7979C49.5575 18.3571 49.2002 18 48.7596 18H37.2404C36.7998 18 36.4426 18.3571 36.4426 18.7979V21.9894C36.4426 22.4301 36.7998 22.7872 37.2404 22.7872H37.5064V24.991L32.6781 34.5576C32.0926 35.7177 31.6338 37.6445 31.6338 38.944V65.0745C31.6338 66.6876 32.9462 68 34.5594 68H51.4405C53.0537 68 54.3661 66.6876 54.3661 65.0745V38.944C54.3661 37.6444 53.9074 35.7177 53.3219 34.5576ZM38.0383 19.5957H47.9616V21.1915H38.0383V19.5957ZM39.0166 25.5403C39.0729 25.4288 39.1021 25.3057 39.1021 25.1809V22.7872H46.8978V25.1809C46.8978 25.3057 46.927 25.4288 46.9833 25.5403L50.0198 31.5566C49.4442 31.7432 49.0406 32.0441 48.6914 32.3052C48.2178 32.6594 47.8755 32.9151 47.1126 32.9151C46.3496 32.9151 46.0073 32.6594 45.5337 32.3052C44.981 31.892 44.293 31.3777 42.9994 31.3777C41.7059 31.3777 41.018 31.892 40.4652 32.3053C39.9917 32.6594 39.6496 32.9151 38.8867 32.9151C38.1238 32.9151 37.7817 32.6594 37.3082 32.3053C36.959 32.0443 36.5555 31.7433 35.98 31.5567L39.0166 25.5403V25.5403ZM52.7703 65.0745C52.7703 65.8078 52.1738 66.4043 51.4405 66.4043H34.5595C33.8262 66.4043 33.2297 65.8078 33.2297 65.0745V38.944C33.2297 37.8936 33.6295 36.2141 34.1028 35.2764L35.2449 33.0135C35.7029 33.0983 35.9895 33.3116 36.3529 33.5832C36.9055 33.9965 37.5935 34.5109 38.8869 34.5109C40.1803 34.5109 40.8683 33.9965 41.421 33.5832C41.8945 33.2291 42.2366 32.9734 42.9995 32.9734C43.7624 32.9734 44.1047 33.2291 44.5783 33.5833C45.1311 33.9966 45.819 34.5109 47.1126 34.5109C48.4062 34.5109 49.094 33.9965 49.6469 33.5833C50.0103 33.3116 50.297 33.0983 50.7551 33.0135L51.8972 35.2765C52.3704 36.214 52.7703 37.8936 52.7703 38.944V65.0745V65.0745Z" fill="white"/>
<path d="M35.6233 60.0212C35.1827 60.0212 34.8254 60.3784 34.8254 60.8191V64.0106C34.8254 64.4513 35.1827 64.8085 35.6233 64.8085C36.0639 64.8085 36.4212 64.4513 36.4212 64.0106V60.8191C36.4212 60.3784 36.0639 60.0212 35.6233 60.0212Z" fill="white"/>
<path d="M36.5992 35.6426C36.2058 35.4441 35.726 35.602 35.5273 35.9953C35.1731 36.6972 34.8254 38.1576 34.8254 38.9439V57.6275C34.8254 58.0683 35.1827 58.4254 35.6233 58.4254C36.0639 58.4254 36.4212 58.0683 36.4212 57.6275V38.9439C36.4212 38.4044 36.7088 37.1959 36.9519 36.7144C37.1504 36.321 36.9925 35.8411 36.5992 35.6426Z" fill="white"/>
<path d="M41.4957 25.9788H44.5042C44.9448 25.9788 45.302 25.6217 45.302 25.1809C45.302 24.7402 44.9448 24.3831 44.5042 24.3831H41.4957C41.0551 24.3831 40.6979 24.7402 40.6979 25.1809C40.6979 25.6217 41.0551 25.9788 41.4957 25.9788Z" fill="white"/>
</g>
<line x1="25.0257" y1="59.1428" x2="12.6205" y2="70.0871" stroke="white" stroke-width="4"/>
<line x1="71.6419" y1="15.4827" x2="55.5089" y2="29.7158" stroke="white" stroke-width="4"/>
<defs>
<clipPath id="clip0_305_34">
<rect width="50" height="50" fill="white" transform="translate(18 18)"/>
</clipPath>
</defs>
</svg>
