<svg width="85" height="85" viewBox="0 0 85 85" fill="none" xmlns="http://www.w3.org/2000/svg">
<circle cx="42.5" cy="42.5" r="40.5" stroke="white" stroke-width="4"/>
<path d="M58.2688 58.9874L48.7529 35.7928C48.2252 34.5061 47.9574 33.1486 47.9574 31.7578V25.6267C47.9574 24.9665 48.2146 24.3458 48.6815 23.8789C49.2507 23.3096 49.5645 22.5526 49.5645 21.7475V20.8789C49.5645 20.3934 49.1707 20 48.6856 20H36.4142C35.9288 20 35.5353 20.3934 35.5353 20.8789V21.7475C35.5353 22.5526 35.8488 23.3096 36.418 23.8789C36.8849 24.3458 37.1421 24.9665 37.1421 25.6271V31.7578C37.1421 33.1486 36.8746 34.5061 36.3466 35.7928L33.7319 42.1663C33.7308 42.1687 33.7298 42.1711 33.7288 42.1735L26.8307 58.9874C26.2783 60.3342 26.4325 61.8603 27.2434 63.0692C28.0543 64.2783 29.4074 65 30.8631 65H54.2365C55.6922 65 57.0455 64.2783 57.8565 63.0692C58.6671 61.86 58.8212 60.3342 58.2688 58.9874V58.9874ZM37.9729 36.4599C38.5882 34.9606 38.8999 33.3786 38.8999 31.7578V25.6267C38.8999 24.4972 38.4601 23.4349 37.6612 22.636C37.4264 22.4012 37.2959 22.0895 37.2932 21.7578H47.8067C47.804 22.0895 47.6735 22.4009 47.4383 22.636C46.6398 23.4349 46.1996 24.4968 46.1996 25.6267V31.7574C46.1996 33.3783 46.5117 34.9603 47.1266 36.4596L49.2487 41.6321H35.8509L37.9729 36.4599ZM56.3963 62.09C55.9054 62.8223 55.1181 63.2422 54.2365 63.2422H30.8631C29.9818 63.2422 29.1945 62.8223 28.7032 62.09C28.3328 61.5376 28.1913 60.8969 28.2875 60.2652H29.7356C30.2207 60.2652 30.6145 59.8714 30.6145 59.3863C30.6145 58.9009 30.2207 58.5074 29.7356 58.5074H28.9281L29.9375 56.0465H31.4199C31.9054 56.0465 32.2988 55.6527 32.2988 55.1676C32.2988 54.6821 31.9054 54.2887 31.4199 54.2887H30.6588L31.6682 51.8277H33.1925C33.678 51.8277 34.0714 51.4339 34.0714 50.9488C34.0714 50.4634 33.678 50.0699 33.1925 50.0699H32.3895L33.3992 47.609H34.9647C35.4502 47.609 35.8436 47.2152 35.8436 46.7301C35.8436 46.2446 35.4502 45.8512 34.9647 45.8512H34.1202L35.1299 43.3902H49.9697L56.6425 59.6548C56.9769 60.4702 56.8873 61.358 56.3963 62.09V62.09Z" fill="white"/>
<path d="M53.9285 59.0424C53.7445 58.593 53.2316 58.3781 52.7822 58.5617C52.3331 58.7458 52.1179 59.2587 52.3015 59.7081L52.3063 59.7191C52.4457 60.0593 52.7736 60.2653 53.12 60.2653C53.2309 60.2653 53.3435 60.2444 53.4527 60.1997C53.9018 60.0157 54.117 59.5025 53.933 59.0534L53.9285 59.0424Z" fill="white"/>
<path d="M52.6864 56.0142L49.5388 48.3423C49.3548 47.8932 48.8415 47.6783 48.3921 47.8627C47.943 48.0467 47.7285 48.5603 47.9125 49.0094L51.0601 56.6813C51.1995 57.0215 51.5273 57.2268 51.8737 57.2268C51.9846 57.2268 52.0976 57.2059 52.2068 57.1609C52.6558 56.9769 52.8708 56.4633 52.6864 56.0142V56.0142Z" fill="white"/>
<line x1="23.1521" y1="62.2986" x2="12.4943" y2="71.7013" stroke="white" stroke-width="4"/>
<line x1="70.6008" y1="15.6305" x2="52.6008" y2="33.6305" stroke="white" stroke-width="4"/>
</svg>
